<?xml version="1.0" encoding="utf-8"?>
<!-- Generator: Adobe Illustrator 18.1.1, SVG Export Plug-In . SVG Version: 6.00 Build 0)  -->
<svg version="1.1" id="Layer_1" xmlns="http://www.w3.org/2000/svg" xmlns:xlink="http://www.w3.org/1999/xlink" x="0px" y="0px"
	 viewBox="0 0 849 710.8" enable-background="new 0 0 849 710.8" xml:space="preserve">
<g>
	<polygon points="0,710.8 136,564.9 190.8,564.9 188.3,575.6 199.7,564.9 259.3,564.9 250.2,586 474.6,585.4 466.4,667 217.5,667.8 
		209.3,690 150.6,690.3 132.6,710.8 135.1,657 98.1,710.8 	"/>
	<polygon fill="#010101" points="445.9,585.4 452.8,564.9 506.2,564.9 487.3,585.4 504.2,585.4 504.1,591 516.8,591 519.4,585.4 
		647.1,585 662.6,537.5 849,537.5 743.7,643.7 800.1,643.7 779.8,706.3 569.4,706.3 606.3,675.5 560.2,675.5 555.7,691.5 
		421.5,691.5 429.3,667.3 	"/>
	<polygon fill="#FFCD00" stroke="#FE0005" stroke-width="2.2731" stroke-miterlimit="10" points="40.3,687.9 143.2,570.2 
		179.6,570.2 175.6,607.8 203.4,570.2 243.2,570.2 201.2,671.4 169.7,671.4 196.6,610.8 146.2,670.3 152.3,610.4 90.5,687.9 	"/>
	<polygon fill="#FE0005" stroke="#FFFFFF" stroke-width="1.1365" stroke-miterlimit="10" points="279.7,590 261.2,634.8 
		239.7,635.3 258,591 244.1,591 220.1,650.7 268.7,650.7 293.1,590 	"/>
	<polygon fill="#FE0005" stroke="#FFFFFF" stroke-width="1.1365" stroke-miterlimit="10" points="333.1,590 314.6,634.8 
		293.1,635.3 311.4,591 297.5,591 273.5,650.7 322.1,650.7 346.5,590 	"/>
	<polygon fill="#FE0005" stroke="#FFFFFF" stroke-width="1.1365" stroke-miterlimit="10" points="386.6,590 368,634.8 346.5,635.3 
		364.9,591 351,591 326.9,650.7 375.5,650.7 400,590 	"/>
	<polygon fill="#FE0005" stroke="#FFFFFF" stroke-width="1.1365" stroke-miterlimit="10" points="383,650.7 424.2,650.7 
		431.3,632.8 412.7,632.8 416.3,629.4 440.4,609.5 448.4,591 405.7,591 399.5,607.8 421.9,607.8 389.5,632.8 	"/>
	<polygon fill="#FE0005" stroke="#FFFFFF" stroke-width="1.1365" stroke-miterlimit="10" points="429.3,650.7 444.7,650.7 
		469.2,591 453.1,591 	"/>
	<polygon fill="#FE0005" stroke="#FFFFFF" stroke-width="1.1365" stroke-miterlimit="10" points="455,585.4 460.7,572.1 
		479.8,572.1 467.4,585.4 	"/>
	<polygon fill="#FE0005" stroke="#FFFFFF" stroke-width="1.1365" stroke-miterlimit="10" points="474.4,591 449.9,650.7 
		465.3,650.7 480.6,613.4 497.5,613.4 483.7,650.7 498.9,650.7 520.8,595.3 490.7,594.8 486.7,598.4 488.9,591 	"/>
	<path fill="#FE0005" stroke="#FFFFFF" stroke-width="1.1365" stroke-miterlimit="10" d="M527.9,591l-23.7,59.7h32.1l-2.1,6.8h-89.4
		l-8,18H542l34.8-84.5H527.9z M525.9,632.9l9.7-23.5h17.8l-9,23.5H525.9z"/>
	<path fill="#FE0005" stroke="#FFFFFF" stroke-width="1.1365" stroke-miterlimit="10" d="M615.4,629.3l14.8-38.4H583l-24.4,59.7h48
		l7.7-18.6l-32.1-0.1l0.6-2.7H615.4z M590.9,607.8c0,0,18.5-0.2,18.3,0c-0.2,0.2-2.1,4.9-2.1,4.9l-18.3,0.1L590.9,607.8z"/>
	<polygon fill="#FE0005" stroke="#FFFFFF" stroke-width="1.1365" stroke-miterlimit="10" points="636.3,590 612,650.7 627.1,650.7 
		639.2,620.8 655.1,608.7 667.7,608.6 688.6,590 661.2,590 648.1,599.9 650.3,590 	"/>
	<polygon fill="#FFCD00" stroke="#FE0005" stroke-width="2.2731" stroke-miterlimit="10" points="611.5,686.7 729.7,581 659.2,581 
		670.6,546.4 819.3,546.4 714,653.8 782.5,652.6 770.6,686.7 	"/>
</g>
<g>
	<polygon fill="#BA151A" stroke="#000000" stroke-width="7.3513" stroke-miterlimit="10" points="198.2,50 218.8,73.5 214.7,160.6 
		335.4,217.7 368.4,162.7 255.7,117.5 249.6,72.6 	"/>
	<polygon fill="#BA151A" stroke="#000000" stroke-width="7.3513" stroke-miterlimit="10" points="545.9,12.3 529.9,39.1 
		549.6,124.1 430.1,210 402.8,152.3 501.5,89.1 499.4,43.8 	"/>
	<g id="Lengua_1_">
		<g>
			<path fill="#FCAAAC" d="M516.8,528.8c0,0,28.6,56.7,86,53.6c0,0,75.1-2.4,107.4-89.7c0,0,15.3-46.3-26.9-47.6
				c0,0-25.9,2.7-43.3,18c0,0-19.7,13.4-37.9-1.6l-57.6,40.6L516.8,528.8z"/>
			<g>
				<path d="M515.4,532.1c10.6,21,30,39.8,51.7,48.8c20.5,8.5,41.3,7.6,61.8,0.6c32.2-10.9,57.7-34.9,73.5-64.7
					c5.7-10.8,10.7-21.9,12.1-34c1.4-11.8,0.2-25.8-8.9-34.4c-12.3-11.6-29.7-7.7-43.8-2.5c-6.2,2.3-12.2,5.2-17.6,9
					c-2.7,1.9-4.8,4-7.7,5.4c-11.3,5.6-23.8,4.5-33.8-3.2c-0.4-0.2-0.7-0.2-1.1,0c-12.7,8.9-25.3,17.9-38,26.8
					c-6.1,4.3-12.3,8.5-18.3,12.9c-3.8,2.8-7,6.4-10.4,9.6c-6.4,6.1-12.7,12.2-19.1,18.4c-1.9,1.8-0.8,10.6,2,7.9
					c5-4.8,10-9.6,14.9-14.3c3.2-3,6.3-6.1,9.5-9.1c0.9-0.9,1.8-1.8,2.7-2.6c0.9-0.8,0.1-0.1,0.3-0.2c12.2-9.2,25-17.6,37.4-26.4
					c6-4.2,12-8.5,18.1-12.7c0.3-0.2,1.2-1.1,1.6-1.1c0.3,0,4.6,3.4,5.7,4c6,2.9,12.7,3.7,19.3,2.5c10.4-2,16.4-8.6,25.4-13.4
					c8.9-4.7,19.6-8.6,29.7-9.4c8.4-0.7,18.4,2.5,23.7,9.3c4.4,5.7,5.2,13.2,4.5,20.1c-0.4,4-1.1,7.8-2.5,11.6
					c-4.8,13.5-12,26.5-20.6,38c-19.4,25.8-49.8,45.6-82.5,48.7c-36,3.4-68.3-20.1-85.8-50.1c-0.3-0.5-0.6-1.1-1.1-2
					C516,521.2,514.2,529.7,515.4,532.1z"/>
			</g>
		</g>
		<g>
			<g>
				<path d="M537.6,497.2c20.5,18.6,52.6,35,80.6,26.5c12.5-3.8,22.5-12.3,30.3-22.7c1.6-2.1,0.1-10.8-2-7.9
					c-13.4,17.8-32.7,26.5-54.8,22.7c-16.2-2.8-31.3-11-44.5-20.7c-2.9-2.1-5.8-4.3-8.4-6.7C536.8,486.7,535.4,495.2,537.6,497.2
					L537.6,497.2z"/>
			</g>
		</g>
	</g>
	<g>
		<path fill="#FFFFFF" d="M291.1,190.4c0,0,16.3,148.1,0,209.1l267.2-64.2c0,0-46.7-92-61.3-159.6c0,0,9.8-47.2-113.1-34.2
			C383.9,141.6,283,145.7,291.1,190.4z"/>
		<g>
			<path d="M289.2,191.7c5.6,51.4,8.9,103.8,6.6,155.5c-0.8,16.8-2.1,33.8-6.4,50.1c-0.3,1-0.6,7.5,1.7,6.9
				c30.1-7.2,60.1-14.4,90.2-21.7c48-11.5,95.9-23,143.9-34.6c11.1-2.7,22.1-5.3,33.2-8c2.6-0.6,2.4-6,1.4-7.8
				c-18.2-35.9-34.3-73.3-47.4-111.4c-5.3-15.5-10.1-31.2-13.6-47.2c0,1.5,0,3.1,0,4.6c4.6-22.8-18.8-35.5-37.4-39.7
				c-26.4-6-53.4-2.9-80-1.2c-17.7,1.1-35.6,3.9-52.6,9.2C307.7,152.9,284.9,166.1,289.2,191.7c1,6.1,4.6,1.7,3.9-2.4
				c-2.2-13,9.2-21.8,19.5-27.2c13.1-6.8,28-10.2,42.5-12.7c9.2-1.5,18.5-2.5,27.8-3.1c20.2-1.4,40.2-3.3,60.5-1.5
				c13.4,1.2,27.7,3.7,39.2,11c3.1,2,6,4.4,8.3,7.3c0.8,1,1.8,2.5,2.2,3.3c0.3,0.6,0.6,1.2,0.8,1.8c0.3,0.8,0.6,1.5,0.5,1.3
				c0.2,0.5,0.3,1,0.4,1.6c0.3,1.4-0.1-0.4,0.1,0.6c0.1,0.4,0.1,0.9,0.2,1.3c0.1,1-0.1-1.2,0,0.3c0.2,1.8,0.1-0.3,0,0.5
				c0,0.5-0.1,1.7,0.1-0.3c-0.4,4.8,1,9.3,2.2,13.9c1.5,6,3.2,11.9,4.9,17.8c3.4,11.2,7.1,22.2,11.1,33.2
				c12.5,34.1,27,67.8,43.4,100.2c0.5-2.6,1-5.2,1.4-7.8c-30.1,7.2-60.1,14.4-90.2,21.7c-48,11.5-95.9,23-143.9,34.6
				c-11.1,2.7-22.1,5.3-33.2,8c0.6,2.3,1.2,4.6,1.7,6.9c8.4-31.9,7.9-66.4,7.4-99.1c-0.6-31.4-2.5-62.8-5.3-94.1
				c-0.6-6.5-1.2-13-1.9-19.5c-0.1-1.3-0.7-3.8-2.5-3.2C288.9,186.6,289,190.5,289.2,191.7z"/>
		</g>
	</g>
	<path fill="#FFFFFF" stroke="#000000" stroke-width="9.1891" stroke-miterlimit="10" d="M261.8,402.8c0,0-9,77.3,9.8,145.7
		c0,0,8.3,18.7,32.8,19.3c0,0,99.5,4.9,121.5-3.1c0,0,150.7-49.4,172.7-92.8c0,0,23.8-57.4,6.1-120.2c0,0-14-34.4-51.3-34.2
		c0,0-72-20.1-101.9-3.1C451.4,314.5,298,337.3,261.8,402.8z"/>
	<g>
		<path d="M282.1,419.2c12.7,101.9,61.3,89.1,61.3,89.1c56.8-16.5,8.8-101.6,8.8-101.6c-24.1-36.3-67-9.1-67-9.1
			C284.6,399.2,280.3,404.9,282.1,419.2z"/>
		<path fill="#FFFFFF" d="M324.2,399.4c0,0,35.7,53.1,20.8,93.7c0,0-5,11.7,6.3,5c0,0,31.2-51.1-16.2-100.5c-0.9-1-3.1-1.9-4.5-2.3
			C326.3,393.9,318.1,391.9,324.2,399.4z"/>
		<path d="M489.8,363.9c10.3,92.5,50,80.9,50,80.9c46.2-15,7.2-92.2,7.2-92.2c-19.6-33-54.6-8.2-54.6-8.2
			C491.8,345.7,488.3,350.9,489.8,363.9z"/>
		<path fill="#FFFFFF" d="M523.2,345.9c0,0,29.1,48.2,16.9,85c0,0-4.1,10.6,5.1,4.5c0,0,25.4-46.4-13.2-91.2
			c-0.8-0.9-2.5-1.7-3.7-2.1C524.9,340.9,518.3,339.1,523.2,345.9z"/>
	</g>
	<path d="M298.3,327.4c0,0,43.7,1.1,50.6-0.9c0,0,23.6-6.6,28.5-21.9c0,0,6-84.7,0-129.8c0,0-9.8-25.7-27.8-29l-27.6,7.5l-17.1,8.7
		l-8.9,8.3l-4.9,11l1.5,23.6l2.4,29.5l2.2,36.9l1.1,37.3L298.3,327.4z"/>
	<path d="M543.9,310.5c0,0-63-24.3-84.2-26.3c0,0-17.2-2-17.2-29.3c0-1.4,5.7-51.8,18-71.8c0,0,13.6-23.3,36.1-10.5l-0.3,4.7
		l7.3,23.4l6.2,19.6l12.5,34l17.9,42.5l4.7,12.2L543.9,310.5z"/>
	<circle fill="#FFFFFF" stroke="#000000" stroke-width="4.8824" stroke-miterlimit="10" cx="305.9" cy="257.3" r="42.6"/>
	<circle cx="303.1" cy="255.3" r="25.5"/>
	<circle fill="#FFFFFF" cx="290.7" cy="252.3" r="7.4"/>
	<ellipse fill="#FFFFFF" cx="301.3" cy="262.3" rx="4.6" ry="4.9"/>
	<circle fill="#FFFFFF" stroke="#000000" stroke-width="4.3403" stroke-miterlimit="10" cx="514.1" cy="234.5" r="37.9"/>
	<circle cx="517.4" cy="230.5" r="20.5"/>
	<circle fill="#FFFFFF" cx="512" cy="228.2" r="6"/>
	<ellipse fill="#FFFFFF" cx="518.2" cy="238.8" rx="3.3" ry="3.6"/>
	<path d="M298,182c0,0-49.8-32-114.5-6.6c0,0-22.4,8.1,0,16.3c0,0,60.8,38.4,114.5,3.9V182z"/>
	<path d="M485.5,153c0,0,22.6-54.7,90.3-70.7c0,0,23-6.1,9.3,13.4c0,0-28,66.2-91.8,68.5L485.5,153z"/>
</g>
</svg>
